<svg width="289" height="45" viewBox="0 0 289 45" fill="none" xmlns="http://www.w3.org/2000/svg">
<g clip-path="url(#clip0_2693_13335)">
<path d="M3.6 0H66.6C68.5883 0 70.2 1.61181 70.2 3.6V41.4C70.2 43.3883 68.5883 45 66.6 45H3.6C1.61181 45 0 43.3883 0 41.4V3.6C0 1.61181 1.61181 0 3.6 0Z" fill="#0E4595"/>
<path d="M26.388 31.3858L29.3905 13.7674H34.1929L31.1883 31.3858H26.388ZM48.5379 14.1472C47.5866 13.7903 46.0956 13.4072 44.234 13.4072C39.4887 13.4072 36.1461 15.7967 36.1178 19.2215C36.0908 21.7532 38.504 23.1655 40.3254 24.0082C42.1948 24.8718 42.8231 25.4225 42.8143 26.1937C42.8025 27.3746 41.3215 27.9141 39.9413 27.9141C38.0192 27.9141 36.998 27.6471 35.4209 26.9893L34.802 26.7094L34.128 30.6535C35.2497 31.1452 37.3239 31.5713 39.4775 31.5933C44.5256 31.5933 47.8025 29.2312 47.8399 25.574C47.8578 23.5698 46.5784 22.0445 43.8078 20.787C42.1293 19.9721 41.1013 19.4281 41.1122 18.6029C41.1122 17.8706 41.9823 17.0874 43.8623 17.0874C45.4328 17.0631 46.5704 17.4056 47.4568 17.7624L47.8871 17.9658L48.5379 14.1472ZM60.8958 13.7671H57.1849C56.0354 13.7671 55.1751 14.081 54.6703 15.2282L47.5383 31.3742H52.5811C52.5811 31.3742 53.4055 29.2031 53.592 28.7266C54.1432 28.7266 59.0419 28.7341 59.7424 28.7341C59.886 29.3509 60.3265 31.3742 60.3265 31.3742H64.7827L60.8958 13.7666V13.7671ZM55.0082 25.144C55.4053 24.1289 56.9216 20.219 56.9216 20.219C56.8932 20.2659 57.3157 19.1989 57.5583 18.5374L57.8827 20.0565C57.8827 20.0565 58.8024 24.2621 58.9946 25.144H55.0082ZM22.3112 13.7671L17.6096 25.7821L17.1086 23.3404C16.2333 20.5259 13.5063 17.4765 10.4578 15.9498L14.7567 31.3578L19.8377 31.3521L27.3981 13.767H22.3112" fill="white"/>
<path d="M13.2225 13.766H5.47877L5.41748 14.1326C11.4419 15.5909 15.4282 19.1152 17.0833 23.3495L15.3994 15.2531C15.1087 14.1375 14.2656 13.8046 13.2226 13.7656" fill="#F2AE14"/>
</g>
<g clip-path="url(#clip1_2693_13335)">
<path d="M85.7153 44.8995V41.9095C85.7153 40.7629 85.0175 40.0157 83.872 40.0157C83.2704 40.0157 82.6267 40.2154 82.1779 40.8579C81.829 40.3092 81.3357 40.0157 80.5836 40.0157C80.304 40.0036 80.0258 40.061 79.7738 40.1828C79.5219 40.3046 79.304 40.4869 79.1398 40.7135V40.1119H78.1929V44.8959H79.1398V42.1586C79.1398 41.3163 79.6379 40.9133 80.3358 40.9133C81.0336 40.9133 81.4319 41.3621 81.4319 42.1586V44.8995H82.3788V42.1586C82.3788 41.3163 82.877 40.9133 83.5748 40.9133C84.2727 40.9133 84.6709 41.3621 84.6709 42.1586V44.8995H85.7153ZM101.263 40.1649H99.5185V38.721H98.574V40.1649H97.5778V41.0071H98.574V43.2547C98.574 44.3508 98.9723 44.9994 100.168 44.9994C100.621 44.9899 101.065 44.8701 101.462 44.6504L101.162 43.8082C100.893 43.9762 100.582 44.0627 100.265 44.0572C99.7664 44.0572 99.5173 43.7576 99.5173 43.2595V40.9686H101.262V40.1709L101.263 40.1649ZM110.133 40.0157C109.875 40.0099 109.62 40.0712 109.393 40.1935C109.166 40.3158 108.975 40.495 108.837 40.7135V40.1119H107.89V44.8959H108.837V42.2091C108.837 41.4114 109.236 40.9133 109.884 40.9133C110.103 40.9221 110.32 40.9556 110.532 41.0131L110.831 40.1155C110.603 40.0579 110.369 40.0245 110.133 40.0157ZM96.7283 40.5138C96.2302 40.1649 95.5323 40.0157 94.7851 40.0157C93.5891 40.0157 92.8419 40.5643 92.8419 41.5113C92.8419 42.309 93.3906 42.7566 94.4362 42.907L94.9343 42.9563C95.483 43.0562 95.8319 43.2559 95.8319 43.505C95.8319 43.8539 95.4336 44.1066 94.6852 44.1066C94.1138 44.1183 93.5541 43.9434 93.091 43.6084L92.5929 44.3556C93.2907 44.8538 94.1378 44.9572 94.6383 44.9572C96.034 44.9572 96.7812 44.3099 96.7812 43.4123C96.7812 42.5701 96.1796 42.167 95.1365 42.0166L94.6383 41.9673C94.1895 41.9179 93.7961 41.7675 93.7961 41.4691C93.7961 41.1202 94.1943 40.8675 94.743 40.8675C95.3446 40.8675 95.939 41.1166 96.2386 41.2658L96.7283 40.5138ZM111.18 42.5075C111.18 43.9514 112.127 44.9994 113.672 44.9994C114.37 44.9994 114.868 44.8502 115.366 44.4507L114.868 43.7035C114.515 43.9891 114.076 44.1473 113.623 44.1523C112.78 44.1523 112.127 43.505 112.127 42.558C112.127 41.6111 112.772 40.9686 113.623 40.9686C114.076 40.9736 114.515 41.1318 114.868 41.4174L115.366 40.6702C114.868 40.2719 114.37 40.1215 113.672 40.1215C112.176 40.0217 111.18 41.0685 111.18 42.5135V42.5075ZM104.502 40.0157C103.107 40.0157 102.16 41.0119 102.16 42.5075C102.16 44.0031 103.156 44.9994 104.601 44.9994C105.304 45.0142 105.99 44.7855 106.544 44.352L106.046 43.6542C105.646 43.9644 105.157 44.1389 104.65 44.1523C104.003 44.1523 103.305 43.754 103.206 42.907H106.745V42.5087C106.745 41.0131 105.847 40.0169 104.502 40.0169V40.0157ZM104.453 40.9133C105.151 40.9133 105.649 41.3621 105.698 42.1092H103.108C103.257 41.4114 103.709 40.9133 104.453 40.9133ZM91.5461 42.5075V40.1155H90.5992V40.7171C90.2502 40.2683 89.7569 40.0193 89.0542 40.0193C87.709 40.0193 86.7116 41.0661 86.7116 42.5111C86.7116 43.9562 87.7078 45.003 89.0542 45.003C89.7521 45.003 90.2502 44.7539 90.5992 44.3051V44.9067H91.5461V42.5075ZM87.709 42.5075C87.709 41.6099 88.2577 40.9133 89.2046 40.9133C90.1022 40.9133 90.6485 41.6111 90.6485 42.5075C90.6485 43.4544 90.0469 44.1018 89.2046 44.1018C88.2577 44.1511 87.709 43.4039 87.709 42.5075ZM124.537 40.0157C124.279 40.0099 124.024 40.0712 123.797 40.1935C123.57 40.3158 123.378 40.495 123.241 40.7135V40.1119H122.294V44.8959H123.24V42.2091C123.24 41.4114 123.638 40.9133 124.287 40.9133C124.505 40.9221 124.723 40.9556 124.934 41.0131L125.234 40.1155C125.005 40.0579 124.771 40.0245 124.536 40.0157H124.537ZM120.849 42.5075V40.1155H119.902V40.7171C119.553 40.2683 119.06 40.0193 118.357 40.0193C117.012 40.0193 116.015 41.0661 116.015 42.5111C116.015 43.9562 117.011 45.003 118.357 45.003C119.055 45.003 119.553 44.7539 119.902 44.3051V44.9067H120.849V42.5075ZM117.012 42.5075C117.012 41.6099 117.561 40.9133 118.508 40.9133C119.405 40.9133 119.951 41.6111 119.951 42.5075C119.951 43.4544 119.35 44.1018 118.508 44.1018C117.561 44.1511 117.012 43.4039 117.012 42.5075ZM130.467 42.5075V38.2217H129.521V40.7135C129.172 40.2647 128.678 40.0157 127.976 40.0157C126.63 40.0157 125.633 41.0625 125.633 42.5075C125.633 43.9526 126.629 44.9994 127.976 44.9994C128.673 44.9994 129.172 44.7503 129.521 44.3015V44.9031H130.467V42.5075ZM126.63 42.5075C126.63 41.6099 127.179 40.9133 128.126 40.9133C129.024 40.9133 129.57 41.6111 129.57 42.5075C129.57 43.4544 128.968 44.1018 128.126 44.1018C127.178 44.1523 126.629 43.4051 126.629 42.5075H126.63Z" fill="white"/>
<path d="M112.924 3.83691H95.6318V32.0425H112.924V3.83691Z" fill="#FF5F00"/>
<path d="M97.3766 17.9398C97.3772 15.2265 97.9916 12.5483 99.1739 10.1061C100.356 7.66379 102.076 5.52062 104.204 3.83704C101.557 1.75635 98.3788 0.462244 95.0317 0.102652C91.6846 -0.25694 88.3038 0.332494 85.2758 1.80357C82.2479 3.27465 79.6949 5.56802 77.9088 8.42151C76.1227 11.275 75.1755 14.5735 75.1755 17.9398C75.1755 21.3062 76.1227 24.6047 77.9088 27.4582C79.6949 30.3117 82.2479 32.605 85.2758 34.0761C88.3038 35.5472 91.6846 36.1366 95.0317 35.777C98.3788 35.4175 101.557 34.1233 104.204 32.0427C102.076 30.3591 100.356 28.2159 99.1739 25.7736C97.9916 23.3313 97.3772 20.6532 97.3766 17.9398Z" fill="#EB001B"/>
<path d="M133.258 17.9397C133.26 21.3036 132.316 24.6003 130.532 27.4528C128.749 30.3052 126.199 32.5982 123.174 34.0694C120.149 35.5407 116.771 36.1309 113.426 35.7724C110.081 35.414 106.905 34.1214 104.26 32.0425C106.389 30.3593 108.109 28.2163 109.291 25.7739C110.473 23.3315 111.087 20.6532 111.087 17.9397C111.087 15.2262 110.473 12.5478 109.291 10.1055C108.109 7.66308 106.389 5.52 104.26 3.83686C106.905 1.75797 110.081 0.465382 113.426 0.106929C116.771 -0.251523 120.149 0.338635 123.174 1.80991C126.199 3.28118 128.749 5.57416 130.532 8.42659C132.316 11.279 133.26 14.5757 133.258 17.9397Z" fill="#F79E1B"/>
</g>
<g clip-path="url(#clip2_2693_13335)">
<path d="M141.856 0H204.856C206.844 0 208.456 1.61181 208.456 3.6V41.4C208.456 43.3883 206.844 45 204.856 45H141.856C139.868 45 138.256 43.3883 138.256 41.4V3.6C138.256 1.61181 139.868 0 141.856 0Z" fill="#2557D6"/>
<path d="M138.279 21.2123H141.648L142.408 19.4564H144.109L144.867 21.2123H151.497V19.87L152.089 21.2182H155.531L156.122 19.85V21.2124H172.6L172.592 18.3301H172.911C173.134 18.3376 173.199 18.3573 173.199 18.7104V21.2124H181.721V20.5415C182.409 20.8943 183.478 21.2124 184.884 21.2124H188.47L189.237 19.4565H190.938L191.688 21.2124H198.597V19.5445L199.643 21.2124H205.18V10.1865H199.701V11.4886L198.934 10.1865H193.311V11.4886L192.607 10.1865H185.013C183.741 10.1865 182.624 10.3565 181.721 10.8303V10.1865H176.481V10.8303C175.906 10.342 175.124 10.1865 174.253 10.1865H155.107L153.822 13.0342L152.503 10.1865H146.472V11.4886L145.81 10.1865H140.667L138.278 15.4287V21.2122H138.278L138.279 21.2123ZM159.549 19.622H157.527L157.52 13.4306L154.66 19.6219H152.929L150.061 13.4251V19.6219H146.05L145.292 17.8587H141.186L140.42 19.6219H138.278L141.81 11.7166H144.74L148.094 19.2014V11.7166H151.313L153.894 17.0794L156.265 11.7166H159.549L159.549 19.622ZM144.618 16.218L143.268 13.0664L141.926 16.218H144.618ZM167.595 19.6219H161.007V11.7165H167.595V13.3627H162.979V14.7877H167.485V16.4081H162.979V17.9869H167.595L167.595 19.6219ZM176.88 13.8457C176.88 15.106 176.002 15.7573 175.49 15.9527C175.921 16.1101 176.29 16.3882 176.466 16.6185C176.744 17.0117 176.792 17.3629 176.792 18.0689V19.6219H174.803L174.795 18.6249C174.795 18.1493 174.843 17.4652 174.484 17.0848C174.196 16.8067 173.757 16.7464 173.047 16.7464H170.929V19.6219H168.957V11.7165H173.493C174.501 11.7165 175.244 11.742 175.881 12.0952C176.505 12.4483 176.88 12.9638 176.88 13.8457ZM174.387 15.0194C174.115 15.1771 173.795 15.1823 173.411 15.1823H171.015V13.4264H173.444C173.787 13.4264 174.146 13.4412 174.379 13.569C174.635 13.6842 174.793 13.9293 174.793 14.2678C174.793 14.6134 174.642 14.8915 174.387 15.0194ZM180.043 19.6219H178.03V11.7165H180.043V19.6219ZM203.403 19.6219H200.608L196.87 13.6884V19.6219H192.854L192.086 17.8586H187.989L187.245 19.6219H184.937C183.978 19.6219 182.764 19.4187 182.077 18.7475C181.384 18.0763 181.023 17.1671 181.023 15.7295C181.023 14.5571 181.239 13.4853 182.086 12.6383C182.724 12.0074 183.722 11.7165 185.081 11.7165H186.991V13.4104H185.121C184.402 13.4104 183.995 13.513 183.604 13.8787C183.268 14.2116 183.037 14.8408 183.037 15.6694C183.037 16.5163 183.213 17.1271 183.579 17.5259C183.883 17.8388 184.435 17.9336 184.954 17.9336H185.839L188.619 11.7168H191.574L194.913 19.1941V11.7169H197.916L201.383 17.2225V11.7169H203.403V19.6219ZM191.415 16.2181L190.05 13.0665L188.693 16.2181H191.415ZM208.429 32.2453C207.95 32.9164 207.016 33.2567 205.752 33.2567H201.944V31.5611H205.737C206.113 31.5611 206.376 31.5136 206.535 31.3653C206.685 31.2327 206.769 31.0455 206.768 30.8497C206.768 30.6192 206.672 30.4363 206.527 30.3267C206.384 30.2059 206.176 30.1512 205.832 30.1512C203.981 30.0909 201.67 30.2059 201.67 27.7038C201.67 26.557 202.43 25.3497 204.5 25.3497H208.428V23.7766H204.778C203.677 23.7766 202.876 24.0295 202.31 24.4223V23.7765H196.911C196.048 23.7765 195.034 23.9816 194.555 24.4223V23.7765H184.914V24.4223C184.147 23.892 182.853 23.7765 182.255 23.7765H175.896V24.4223C175.289 23.8591 173.939 23.7765 173.116 23.7765H165.999L164.371 25.4653L162.845 23.7765H152.214V34.8096H162.645L164.323 33.094L165.904 34.8096L172.333 34.8151V32.2197H172.965C173.818 32.2323 174.825 32.1992 175.712 31.8316V34.8093H181.016V31.9336H181.272C181.598 31.9336 181.63 31.9465 181.63 32.2589V34.8089H197.741C198.764 34.8089 199.833 34.5582 200.425 34.1029V34.8089H205.536C206.599 34.8089 207.637 34.6661 208.428 34.3005L208.428 32.2449L208.429 32.2453ZM176.484 28.0013C176.484 30.1978 174.774 30.6514 173.05 30.6514H170.589V33.3036H166.756L164.327 30.6858L161.803 33.3036H153.991V25.3963H161.923L164.35 27.9882L166.858 25.3963H173.16C174.725 25.3963 176.484 25.8114 176.484 28.0013ZM160.804 31.6404H155.955V30.0672H160.285V28.4538H155.955V27.0162H160.9L163.057 29.3205L160.804 31.6404ZM168.617 32.5458L165.589 29.3248L168.617 26.2063V32.5458ZM173.095 29.0298H170.547V27.0162H173.118C173.83 27.0162 174.324 27.2943 174.324 27.9856C174.324 28.6696 173.853 29.0298 173.095 29.0298ZM186.448 25.3963H193.03V27.0316H188.412V28.4691H192.917V30.0825H188.412V31.6557L193.03 31.6629V33.3036H186.447L186.448 25.3963ZM183.917 29.6289C184.356 29.7841 184.715 30.0623 184.883 30.2926C185.162 30.6788 185.202 31.0391 185.21 31.7359V33.3036H183.23V32.3143C183.23 31.8385 183.277 31.1342 182.911 30.7665C182.623 30.4832 182.183 30.4156 181.464 30.4156H179.356V33.3037H177.374V25.3963H181.928C182.926 25.3963 183.653 25.4386 184.301 25.7695C184.923 26.1298 185.315 26.6233 185.315 27.5255C185.315 28.7875 184.436 29.4315 183.917 29.6289ZM182.802 28.6292C182.538 28.7793 182.212 28.7922 181.829 28.7922H179.433V27.0163H181.861C182.212 27.0163 182.564 27.0235 182.802 27.1592C183.058 27.2872 183.211 27.5323 183.211 27.8704C183.211 28.2087 183.058 28.4812 182.802 28.6292ZM200.606 29.133C200.99 29.5136 201.196 29.9944 201.196 30.8081C201.196 32.5091 200.087 33.3032 198.098 33.3032H194.256V31.6076H198.082C198.456 31.6076 198.722 31.5604 198.888 31.4119C199.024 31.2896 199.121 31.1119 199.121 30.8962C199.121 30.6658 199.016 30.483 198.88 30.3733C198.729 30.2527 198.521 30.1978 198.178 30.1978C196.333 30.1375 194.024 30.2527 194.024 27.7506C194.024 26.6036 194.776 25.3963 196.843 25.3963H200.797V27.0793H197.179C196.821 27.0793 196.588 27.0924 196.389 27.2222C196.173 27.3502 196.093 27.5402 196.093 27.7909C196.093 28.0891 196.277 28.2922 196.525 28.38C196.733 28.4493 196.956 28.4696 197.292 28.4696L198.354 28.4971C199.424 28.522 200.159 28.6994 200.606 29.133ZM208.432 27.0162H204.838C204.479 27.0162 204.24 27.0291 204.04 27.159C203.831 27.2871 203.751 27.4771 203.751 27.728C203.751 28.0262 203.927 28.2291 204.183 28.3169C204.391 28.3863 204.614 28.4066 204.943 28.4066L206.012 28.4339C207.09 28.4595 207.81 28.6372 208.249 29.0704C208.329 29.1307 208.377 29.1984 208.432 29.2662V27.0162H208.432Z" fill="white"/>
</g>
<g clip-path="url(#clip3_2693_13335)">
<path d="M285.456 0H216.456C214.799 0 213.456 1.34315 213.456 3V42C213.456 43.6569 214.799 45 216.456 45H285.456C287.113 45 288.456 43.6569 288.456 42V3C288.456 1.34315 287.113 0 285.456 0Z" fill="white"/>
<path d="M285.081 0.374023H216.831C215.174 0.374023 213.831 1.71717 213.831 3.37402V41.624C213.831 43.2809 215.174 44.624 216.831 44.624H285.081C286.738 44.624 288.081 43.2809 288.081 41.624V3.37402C288.081 1.71717 286.738 0.374023 285.081 0.374023Z" stroke="#E6772F"/>
<path d="M231.542 44.9999H285.456C287.113 44.9999 288.456 43.6597 288.456 42.0037V25.2734C288.456 25.2734 268.356 38.9009 231.542 44.9999Z" fill="#E6772F"/>
<path fill-rule="evenodd" clip-rule="evenodd" d="M227.173 22.3672C226.61 22.8487 225.893 23.0595 224.747 23.0595H224.271V17.3145H224.747C225.893 17.3145 226.582 17.5102 227.173 18.0157C227.782 18.5385 228.148 19.3432 228.148 20.1772C228.148 21.0142 227.782 21.849 227.173 22.3672ZM225.102 15.8422H222.499V24.5317H225.087C226.462 24.5317 227.457 24.2182 228.327 23.5267C229.362 22.707 229.975 21.4702 229.975 20.1892C229.975 17.6242 227.973 15.8422 225.102 15.8422ZM230.792 15.8422H232.557V24.5317H230.792V15.8422ZM236.889 19.173C235.824 18.7987 235.513 18.5505 235.513 18.0802C235.513 17.5342 236.07 17.1202 236.835 17.1202C237.365 17.1202 237.802 17.3235 238.267 17.82L239.188 16.6635C238.445 16.0319 237.499 15.6892 236.523 15.6982C234.916 15.6982 233.691 16.7677 233.691 18.1822C233.691 19.383 234.261 19.9927 235.922 20.571C236.617 20.802 236.97 20.9602 237.148 21.0667C237.502 21.2857 237.678 21.5992 237.678 21.9622C237.678 22.6695 237.093 23.1885 236.302 23.1885C235.46 23.1885 234.779 22.785 234.371 22.0275L233.229 23.085C234.045 24.2295 235.023 24.741 236.372 24.741C238.209 24.741 239.505 23.5635 239.505 21.8865C239.505 20.5042 238.905 19.8772 236.889 19.173ZM240.061 20.1892C240.061 22.7445 242.157 24.7245 244.855 24.7245C245.616 24.7245 246.268 24.5805 247.071 24.2182V22.221C246.362 22.9035 245.739 23.1735 244.933 23.1735C243.15 23.1735 241.887 21.9382 241.887 20.1772C241.887 18.5122 243.191 17.1945 244.855 17.1945C245.695 17.1945 246.337 17.4795 247.071 18.1717V16.1767C246.296 15.8017 245.659 15.6465 244.892 15.6465C242.209 15.6465 240.061 17.6647 240.061 20.1892ZM261.418 21.6757L258.996 15.8422H257.066L260.915 24.7507H261.864L265.788 15.8422H263.873L261.418 21.6757ZM266.592 24.5317H271.614V23.0595H268.364V20.7135H271.49V19.242H268.364V17.3145H271.614V15.8422H266.592V24.5317ZM275.072 19.8382H274.558V17.2102H275.101C276.207 17.2102 276.8 17.6542 276.8 18.5002C276.8 19.3702 276.207 19.8382 275.072 19.8382ZM278.623 18.4057C278.623 16.779 277.457 15.8422 275.413 15.8422H272.783V24.5317H274.558V21.0382H274.788L277.235 24.5317H279.413L276.556 20.8695C277.891 20.6085 278.623 19.7347 278.623 18.4057Z" fill="#1A1919"/>
<path fill-rule="evenodd" clip-rule="evenodd" d="M257.315 20.2077C257.315 22.709 255.197 24.737 252.582 24.737C249.967 24.737 247.849 22.709 247.849 20.2077C247.849 17.7057 249.967 15.6777 252.581 15.6777C255.197 15.6777 257.315 17.7057 257.315 20.2077Z" fill="#E6772F"/>
</g>
<defs>
<clipPath id="clip0_2693_13335">
<rect width="70.2" height="45" fill="white"/>
</clipPath>
<clipPath id="clip1_2693_13335">
<rect width="58.056" height="45" fill="white" transform="translate(75.2002)"/>
</clipPath>
<clipPath id="clip2_2693_13335">
<rect width="70.2" height="45" fill="white" transform="translate(138.256)"/>
</clipPath>
<clipPath id="clip3_2693_13335">
<rect width="75" height="45" fill="white" transform="translate(213.456)"/>
</clipPath>
</defs>
</svg>
